<?xml version="1.0" encoding="UTF-8"?>
<svg viewBox="0 0 960 624" xmlns="http://www.w3.org/2000/svg" role="img" font-family="sans-serif"><style>:root,svg{--card:#ffffff;--card-2:#eef2f7;--band:#e9eef5;--text:#1b2733;--muted:#5b6b7b;--border:#cdd6e0;--accent:#2f6fed;--accent-soft:#e7f0ff;--green:#1f9d57;--green-soft:#e3f7ec;--warn:#c2410c;--warn-soft:#fbe9df;--line:#8aa0b6} @media (prefers-color-scheme:dark){:root,svg{--card:#1a222c;--card-2:#222d3a;--band:#172029;--text:#e6edf3;--muted:#9bb0c3;--border:#33414f;--accent:#5a8bff;--accent-soft:#16263f;--green:#3ad07f;--green-soft:#11301f;--warn:#f2913d;--warn-soft:#2e2113;--line:#6b86a3}} .d-card{fill:var(--card);stroke:var(--border);stroke-width:1.3}
.d-card2{fill:var(--card-2);stroke:var(--border);stroke-width:1.3}
.d-band{fill:var(--band);stroke:var(--border);stroke-width:1.3}
.d-accentbox{fill:var(--accent-soft);stroke:var(--accent);stroke-width:1.4}
.d-greenbox{fill:var(--green-soft);stroke:var(--green);stroke-width:1.4}
.d-warnbox{fill:var(--warn-soft);stroke:var(--warn);stroke-width:1.4}
.d-text{fill:var(--text)}
.d-muted{fill:var(--muted)}
.d-line{stroke:var(--line);stroke-width:1.7;fill:none}
.d-dash{stroke:var(--line);stroke-width:1.5;stroke-dasharray:6 4;fill:none}
.d-arrow{fill:var(--line)}
svg text{font-family:-apple-system,BlinkMacSystemFont,'Segoe UI',Roboto,Helvetica,Arial,sans-serif}
</style><defs><marker id="arr" viewBox="0 0 10 10" refX="8.5" refY="5" markerWidth="7" markerHeight="7" orient="auto-start-reverse"><path d="M0,0 L10,5 L0,10 z" class="d-arrow"/></marker></defs><text class="d-muted" x="30.0" y="32.0" font-size="14.0" font-weight="600" text-anchor="start">Reference Architecture — seven planes (Kubernetes-native, self-hosted)</text><rect class="d-band" x="30" y="50" width="700" height="80" rx="10"/><text class="d-text" x="44.0" y="71.0" font-size="12.5" font-weight="700" text-anchor="start">Developer Interface</text><rect class="d-card" x="44.0" y="83" width="160.5" height="34" rx="7"/><text class="d-text" x="124.2" y="104" font-size="10.5" text-anchor="middle">IDE plugin</text><rect class="d-card" x="214.5" y="83" width="160.5" height="34" rx="7"/><text class="d-text" x="294.8" y="104" font-size="10.5" text-anchor="middle">CLI / terminal agent</text><rect class="d-card" x="385.0" y="83" width="160.5" height="34" rx="7"/><text class="d-text" x="465.2" y="104" font-size="10.5" text-anchor="middle">MCP client</text><rect class="d-card" x="555.5" y="83" width="160.5" height="34" rx="7"/><text class="d-text" x="635.8" y="104" font-size="10.5" text-anchor="middle">Review UI</text><rect class="d-band" x="30" y="140" width="700" height="80" rx="10"/><text class="d-text" x="44.0" y="161.0" font-size="12.5" font-weight="700" text-anchor="start">Agent &amp; Orchestration</text><rect class="d-card" x="44.0" y="173" width="103.7" height="34" rx="7"/><text class="d-text" x="95.8" y="194" font-size="10.5" text-anchor="middle">Planner</text><rect class="d-card" x="157.7" y="173" width="103.7" height="34" rx="7"/><text class="d-text" x="209.5" y="194" font-size="10.5" text-anchor="middle">Coder</text><rect class="d-card" x="271.3" y="173" width="103.7" height="34" rx="7"/><text class="d-text" x="323.2" y="194" font-size="10.5" text-anchor="middle">Test</text><rect class="d-card" x="385.0" y="173" width="103.7" height="34" rx="7"/><text class="d-text" x="436.8" y="194" font-size="10.5" text-anchor="middle">Review</text><rect class="d-card" x="498.7" y="173" width="103.7" height="34" rx="7"/><text class="d-text" x="550.5" y="194" font-size="10.5" text-anchor="middle">Integrator · A2A</text><rect class="d-card" x="612.3" y="173" width="103.7" height="34" rx="7"/><text class="d-text" x="664.2" y="194" font-size="10.5" text-anchor="middle">Argo Workflows</text><rect class="d-band" x="30" y="230" width="700" height="80" rx="10"/><text class="d-text" x="44.0" y="251.0" font-size="12.5" font-weight="700" text-anchor="start">Harness &amp; Control</text><rect class="d-card" x="44.0" y="263" width="126.4" height="34" rx="7"/><text class="d-text" x="107.2" y="284" font-size="10.5" text-anchor="middle">Routing Gateway</text><rect class="d-card" x="180.4" y="263" width="126.4" height="34" rx="7"/><text class="d-text" x="243.6" y="284" font-size="10.5" text-anchor="middle">Policy Server</text><rect class="d-card" x="316.8" y="263" width="126.4" height="34" rx="7"/><text class="d-text" x="380.0" y="284" font-size="10.5" text-anchor="middle">Sandbox Mgr</text><rect class="d-card" x="453.2" y="263" width="126.4" height="34" rx="7"/><text class="d-text" x="516.4" y="284" font-size="10.5" text-anchor="middle">Hooks</text><rect class="d-card" x="589.6" y="263" width="126.4" height="34" rx="7"/><text class="d-text" x="652.8" y="284" font-size="10.5" text-anchor="middle">Sessions / Memory</text><rect class="d-band" x="30" y="320" width="700" height="80" rx="10"/><text class="d-text" x="44.0" y="341.0" font-size="12.5" font-weight="700" text-anchor="start">Model Serving · self-hosted</text><rect class="d-accentbox" x="44.0" y="353" width="103.7" height="34" rx="7"/><text class="d-text" x="95.8" y="374" font-size="10.5" text-anchor="middle">Tier-S</text><rect class="d-accentbox" x="157.7" y="353" width="103.7" height="34" rx="7"/><text class="d-text" x="209.5" y="374" font-size="10.5" text-anchor="middle">Tier-M</text><rect class="d-accentbox" x="271.3" y="353" width="103.7" height="34" rx="7"/><text class="d-text" x="323.2" y="374" font-size="10.5" text-anchor="middle">Tier-L</text><rect class="d-accentbox" x="385.0" y="353" width="103.7" height="34" rx="7"/><text class="d-text" x="436.8" y="374" font-size="10.5" text-anchor="middle">Tier-V</text><rect class="d-accentbox" x="498.7" y="353" width="103.7" height="34" rx="7"/><text class="d-text" x="550.5" y="374" font-size="10.5" text-anchor="middle">Tier-E</text><rect class="d-card" x="612.3" y="353" width="103.7" height="34" rx="7"/><text class="d-text" x="664.2" y="374" font-size="10.5" text-anchor="middle">vLLM·Triton·KServe</text><rect class="d-band" x="30" y="410" width="700" height="80" rx="10"/><text class="d-text" x="44.0" y="431.0" font-size="12.5" font-weight="700" text-anchor="start">Data &amp; Knowledge</text><rect class="d-card" x="44.0" y="443" width="126.4" height="34" rx="7"/><text class="d-text" x="107.2" y="464" font-size="10.5" text-anchor="middle">Code Graph</text><rect class="d-card" x="180.4" y="443" width="126.4" height="34" rx="7"/><text class="d-text" x="243.6" y="464" font-size="10.5" text-anchor="middle">Vector Store</text><rect class="d-card" x="316.8" y="443" width="126.4" height="34" rx="7"/><text class="d-text" x="380.0" y="464" font-size="10.5" text-anchor="middle">Reg. Corpus</text><rect class="d-card" x="453.2" y="443" width="126.4" height="34" rx="7"/><text class="d-text" x="516.4" y="464" font-size="10.5" text-anchor="middle">MLflow Registry</text><rect class="d-card" x="589.6" y="443" width="126.4" height="34" rx="7"/><text class="d-text" x="652.8" y="464" font-size="10.5" text-anchor="middle">Context Store</text><rect class="d-band" x="30" y="500" width="700" height="80" rx="10"/><text class="d-text" x="44.0" y="521.0" font-size="12.5" font-weight="700" text-anchor="start">Platform &amp; Infrastructure</text><rect class="d-card" x="44.0" y="533" width="126.4" height="34" rx="7"/><text class="d-text" x="107.2" y="554" font-size="10.5" text-anchor="middle">Kubernetes</text><rect class="d-card" x="180.4" y="533" width="126.4" height="34" rx="7"/><text class="d-text" x="243.6" y="554" font-size="10.5" text-anchor="middle">GPU Operator</text><rect class="d-card" x="316.8" y="533" width="126.4" height="34" rx="7"/><text class="d-text" x="380.0" y="554" font-size="10.5" text-anchor="middle">Istio + SPIRE</text><rect class="d-card" x="453.2" y="533" width="126.4" height="34" rx="7"/><text class="d-text" x="516.4" y="554" font-size="10.5" text-anchor="middle">Vault</text><rect class="d-card" x="589.6" y="533" width="126.4" height="34" rx="7"/><text class="d-text" x="652.8" y="554" font-size="10.5" text-anchor="middle">KEDA · Kueue</text><rect class="d-accentbox" x="742" y="50" width="196" height="530" rx="10"/><text class="d-text" x="840.0" y="315.0" font-size="13" font-weight="700" text-anchor="middle" transform="rotate(-90 840.0 315.0)">Governance &amp; Audit · 21 CFR Part 11 · WORM evidence</text></svg>