<?xml version="1.0" standalone="no"?>
<!DOCTYPE svg PUBLIC "-//W3C//DTD SVG 20010904//EN"
 "http://www.w3.org/TR/2001/REC-SVG-20010904/DTD/svg10.dtd">
<svg version="1.0" xmlns="http://www.w3.org/2000/svg"
 width="32.000000pt" height="32.000000pt" viewBox="0 0 32.000000 32.000000"
 preserveAspectRatio="xMidYMid meet">

<g transform="translate(0.000000,32.000000) scale(0.100000,-0.100000)"
fill="#000000" stroke="none">
<path d="M79 273 c-28 -24 -59 -77 -59 -102 0 -7 214 81 228 94 2 2 -10 11
-27 19 -48 25 -104 21 -142 -11z"/>
<path d="M209 130 c-44 -112 -45 -120 -25 -114 63 19 106 75 106 141 0 40 -17
93 -29 93 -3 0 -27 -54 -52 -120z"/>
<path d="M131 200 c-80 -36 -83 -39 -55 -45 16 -4 36 -9 45 -11 11 -3 32 13
59 46 23 27 40 50 38 49 -1 -1 -41 -18 -87 -39z"/>
<path d="M183 178 c-35 -36 -41 -48 -36 -73 9 -53 14 -62 23 -40 25 62 59 155
57 155 -2 0 -21 -19 -44 -42z"/>
<path d="M24 123 c14 -55 49 -91 105 -108 23 -7 23 -6 16 46 -4 30 -12 59 -18
65 -7 7 -34 15 -61 19 l-49 7 7 -29z"/>
</g>
</svg>
